OSP-DIN.ufo
<glyph name="quotesingle" format="1">
  <advance width="380"/>
  <unicode hex="0027"/>
  <outline>
    <contour>
      <point x="109" y="1434" type="line" smooth="no"/>
      <point x="272" y="1434" type="line" smooth="no"/>
      <point x="272" y="1106" type="line" smooth="no"/>
      <point x="109" y="1106" type="line" smooth="no"/>
    </contour>
  </outline>
</glyph>
<glyph name="hyphen" format="1">
  <advance width="671"/>
  <unicode hex="002d"/>
  <outline>
    <contour>
      <point x="90" y="729" type="line" smooth="no"/>
      <point x="582" y="729" type="line" smooth="no"/>
      <point x="582" y="565" type="line" smooth="no"/>
      <point x="90" y="565" type="line" smooth="no"/>
    </contour>
  </outline>
</glyph>
<glyph name="semicolon" format="1">
  <advance width="376"/>
  <unicode hex="003b"/>
  <outline>
    <contour>
      <point x="86" y="1024" type="line" smooth="no"/>
      <point x="291" y="1024" type="line" smooth="no"/>
      <point x="291" y="819" type="line" smooth="no"/>
      <point x="86" y="819" type="line" smooth="no"/>
    </contour>
    <contour>
      <point x="86" y="205" type="line" smooth="no"/>
      <point x="291" y="205" type="line" smooth="no"/>
      <point x="291" y="0" type="line" smooth="no"/>
      <point x="86" y="-205" type="line" smooth="no"/>
    </contour>
  </outline>
</glyph>
<glyph name="less" format="1">
  <advance width="901"/>
  <unicode hex="003c"/>
  <outline>
    <contour>
      <point x="874" y="956" type="line" smooth="no"/>
      <point x="874" y="739" type="line" smooth="no"/>
      <point x="660" y="527" type="line" smooth="no"/>
      <point x="874" y="314" type="line" smooth="no"/>
      <point x="874" y="98" type="line" smooth="no"/>
      <point x="443" y="527" type="line" smooth="no"/>
    </contour>
  </outline>
</glyph>
<glyph name="B" format="1">
  <advance width="808"/>
  <unicode hex="0042"/>
  <outline>
    <contour>
      <point x="98" y="1432" type="line" smooth="no"/>
      <point x="508" y="1432" type="line" smooth="yes"/>
      <point x="592" y="1432"/>
      <point x="711" y="1313"/>
      <point x="711" y="1227" type="qcurve" smooth="yes"/>
      <point x="711" y="793" type="line" smooth="yes"/>
      <point x="711" y="762"/>
      <point x="666" y="717"/>
      <point x="635" y="717" type="qcurve" smooth="no"/>
      <point x="635" y="715" type="line" smooth="no"/>
      <point x="666" y="715"/>
      <point x="711" y="670"/>
      <point x="711" y="639" type="qcurve" smooth="yes"/>
      <point x="711" y="203" type="line" smooth="yes"/>
      <point x="711" y="119"/>
      <point x="592" y="0"/>
      <point x="508" y="0" type="qcurve" smooth="yes"/>
      <point x="98" y="0" type="line" smooth="no"/>
    </contour>
    <contour>
      <point x="301" y="1229" type="line" smooth="no"/>
      <point x="301" y="817" type="line" smooth="no"/>
      <point x="430" y="817" type="line" smooth="yes"/>
      <point x="463" y="817"/>
      <point x="508" y="862"/>
      <point x="508" y="895" type="qcurve" smooth="yes"/>
      <point x="508" y="1151" type="line" smooth="yes"/>
      <point x="508" y="1184"/>
      <point x="463" y="1229"/>
      <point x="430" y="1229" type="qcurve" smooth="yes"/>
    </contour>
    <contour>
      <point x="301" y="614" type="line" smooth="no"/>
      <point x="301" y="203" type="line" smooth="no"/>
      <point x="430" y="203" type="line" smooth="yes"/>
      <point x="463" y="203"/>
      <point x="508" y="248"/>
      <point x="508" y="281" type="qcurve" smooth="yes"/>
      <point x="508" y="537" type="line" smooth="yes"/>
      <point x="508" y="570"/>
      <point x="463" y="614"/>
      <point x="430" y="614" type="qcurve" smooth="yes"/>
    </contour>
  </outline>
</glyph>
<glyph name="G" format="1">
  <advance width="786"/>
  <unicode hex="0047"/>
  <outline>
    <contour>
      <point x="520" y="1434"/>
      <point x="700" y="1253"/>
      <point x="700" y="1126" type="qcurve" smooth="no"/>
      <point x="496" y="1126" type="line" smooth="no"/>
      <point x="496" y="1169"/>
      <point x="436" y="1229"/>
      <point x="350" y="1229"/>
      <point x="291" y="1169"/>
      <point x="291" y="1126" type="qcurve" smooth="yes"/>
      <point x="291" y="307" type="line" smooth="yes"/>
      <point x="291" y="264"/>
      <point x="350" y="205"/>
      <point x="436" y="205"/>
      <point x="496" y="264"/>
      <point x="496" y="307" type="qcurve" smooth="yes"/>
      <point x="496" y="614" type="line" smooth="no"/>
      <point x="393" y="614" type="line" smooth="no"/>
      <point x="393" y="819" type="line" smooth="no"/>
      <point x="700" y="819" type="line" smooth="no"/>
      <point x="700" y="307" type="line" smooth="yes"/>
      <point x="700" y="180"/>
      <point x="520" y="0"/>
      <point x="266" y="0"/>
      <point x="86" y="180"/>
      <point x="86" y="307" type="qcurve" smooth="yes"/>
      <point x="86" y="1126" type="line" smooth="yes"/>
      <point x="86" y="1253"/>
      <point x="266" y="1434"/>
    </contour>
  </outline>
</glyph>
<glyph name="H" format="1">
  <advance width="811"/>
  <unicode hex="0048"/>
  <outline>
    <contour>
      <point x="98" y="1434" type="line" smooth="no"/>
      <point x="303" y="1434" type="line" smooth="no"/>
      <point x="303" y="819" type="line" smooth="no"/>
      <point x="508" y="819" type="line" smooth="no"/>
      <point x="508" y="1434" type="line" smooth="no"/>
      <point x="713" y="1434" type="line" smooth="no"/>
      <point x="713" y="0" type="line" smooth="no"/>
      <point x="508" y="0" type="line" smooth="no"/>
      <point x="508" y="614" type="line" smooth="no"/>
      <point x="303" y="614" type="line" smooth="no"/>
      <point x="303" y="0" type="line" smooth="no"/>
      <point x="98" y="0" type="line" smooth="no"/>
    </contour>
  </outline>
</glyph>
<glyph name="L" format="1">
  <advance width="749"/>
  <unicode hex="004c"/>
  <outline>
    <contour>
      <point x="98" y="0" type="line" smooth="no"/>
      <point x="98" y="1434" type="line" smooth="no"/>
      <point x="303" y="1434" type="line" smooth="no"/>
      <point x="303" y="205" type="line" smooth="no"/>
      <point x="713" y="205" type="line" smooth="no"/>
      <point x="713" y="0" type="line" smooth="no"/>
    </contour>
  </outline>
</glyph>
<glyph name="O" format="1">
  <advance width="786"/>
  <unicode hex="004f"/>
  <outline>
    <contour>
      <point x="520" y="1434"/>
      <point x="700" y="1253"/>
      <point x="700" y="1126" type="qcurve" smooth="yes"/>
      <point x="700" y="307" type="line" smooth="yes"/>
      <point x="700" y="180"/>
      <point x="520" y="0"/>
      <point x="266" y="0"/>
      <point x="86" y="180"/>
      <point x="86" y="307" type="qcurve" smooth="yes"/>
      <point x="86" y="1126" type="line" smooth="yes"/>
      <point x="86" y="1253"/>
      <point x="266" y="1434"/>
    </contour>
    <contour>
      <point x="350" y="1229"/>
      <point x="291" y="1169"/>
      <point x="291" y="1126" type="qcurve" smooth="yes"/>
      <point x="291" y="836" type="line" smooth="no"/>
      <point x="291" y="596" type="line" smooth="no"/>
      <point x="291" y="307" type="line" smooth="yes"/>
      <point x="291" y="264"/>
      <point x="350" y="205"/>
      <point x="436" y="205"/>
      <point x="496" y="264"/>
      <point x="496" y="307" type="qcurve" smooth="yes"/>
      <point x="496" y="596" type="line" smooth="no"/>
      <point x="496" y="836" type="line" smooth="no"/>
      <point x="496" y="1126" type="line" smooth="yes"/>
      <point x="496" y="1169"/>
      <point x="436" y="1229"/>
    </contour>
  </outline>
</glyph>
<glyph name="Q" format="1">
  <advance width="790"/>
  <unicode hex="0051"/>
  <outline>
    <contour>
      <point x="520" y="1434"/>
      <point x="700" y="1253"/>
      <point x="700" y="1126" type="qcurve" smooth="yes"/>
      <point x="700" y="299" type="line" smooth="yes"/>
      <point x="700" y="256"/>
      <point x="760" y="197"/>
      <point x="803" y="197" type="qcurve" smooth="no"/>
      <point x="803" y="-8" type="line" smooth="no"/>
      <point x="682" y="-8"/>
      <point x="594" y="74" type="qcurve" smooth="no"/>
      <point x="508" y="0"/>
      <point x="393" y="0" type="qcurve" smooth="yes"/>
      <point x="266" y="0"/>
      <point x="86" y="180"/>
      <point x="86" y="307" type="qcurve" smooth="yes"/>
      <point x="86" y="1126" type="line" smooth="yes"/>
      <point x="86" y="1253"/>
      <point x="266" y="1434"/>
    </contour>
    <contour>
      <point x="350" y="1229"/>
      <point x="291" y="1169"/>
      <point x="291" y="1126" type="qcurve" smooth="yes"/>
      <point x="291" y="307" type="line" smooth="yes"/>
      <point x="291" y="264"/>
      <point x="350" y="205"/>
      <point x="436" y="205"/>
      <point x="496" y="264"/>
      <point x="496" y="307" type="qcurve" smooth="yes"/>
      <point x="496" y="1126" type="line" smooth="yes"/>
      <point x="496" y="1169"/>
      <point x="436" y="1229"/>
    </contour>
  </outline>
</glyph>
<glyph name="R" format="1">
  <advance width="788"/>
  <unicode hex="0052"/>
  <outline>
    <contour>
      <point x="98" y="1432" type="line" smooth="no"/>
      <point x="508" y="1430" type="line" smooth="yes"/>
      <point x="592" y="1430"/>
      <point x="711" y="1311"/>
      <point x="711" y="1227" type="qcurve" smooth="yes"/>
      <point x="711" y="817" type="line" smooth="yes"/>
      <point x="711" y="700"/>
      <point x="610" y="641" type="qcurve" smooth="no"/>
      <point x="610" y="641" type="line" smooth="no"/>
      <point x="711" y="0" type="line" smooth="no"/>
      <point x="508" y="0" type="line" smooth="no"/>
      <point x="406" y="614" type="line" smooth="no"/>
      <point x="301" y="614" type="line" smooth="no"/>
      <point x="301" y="0" type="line" smooth="no"/>
      <point x="98" y="0" type="line" smooth="no"/>
    </contour>
    <contour>
      <point x="301" y="1229" type="line" smooth="no"/>
      <point x="301" y="815" type="line" smooth="no"/>
      <point x="430" y="815" type="line" smooth="yes"/>
      <point x="463" y="815"/>
      <point x="508" y="862"/>
      <point x="508" y="893" type="qcurve" smooth="yes"/>
      <point x="508" y="1149" type="line" smooth="yes"/>
      <point x="508" y="1182"/>
      <point x="463" y="1229"/>
      <point x="430" y="1229" type="qcurve" smooth="yes"/>
    </contour>
  </outline>
</glyph>
<glyph name="bracketleft" format="1">
  <advance width="544"/>
  <unicode hex="005b"/>
  <outline>
    <contour>
      <point x="528" y="1535" type="line" smooth="no"/>
      <point x="325" y="1535" type="line" smooth="no"/>
      <point x="325" y="-102" type="line" smooth="no"/>
      <point x="528" y="-102" type="line" smooth="no"/>
      <point x="528" y="-204" type="line" smooth="no"/>
      <point x="119" y="-204" type="line" smooth="no"/>
      <point x="119" y="-102" type="line" smooth="no"/>
      <point x="119" y="1535" type="line" smooth="no"/>
      <point x="119" y="1637" type="line" smooth="no"/>
      <point x="528" y="1637" type="line" smooth="no"/>
    </contour>
  </outline>
</glyph>
<glyph name="grave" format="1">
  <advance width="825"/>
  <unicode hex="0060"/>
  <outline>
    <contour>
      <point x="209" y="1739" type="line" smooth="no"/>
      <point x="412" y="1739" type="line" smooth="no"/>
      <point x="565" y="1485" type="line" smooth="no"/>
      <point x="414" y="1485" type="line" smooth="no"/>
    </contour>
  </outline>
</glyph>
<glyph name="a" format="1">
  <advance width="733"/>
  <unicode hex="0061"/>
  <outline>
    <contour>
      <point x="485" y="1024"/>
      <point x="666" y="844"/>
      <point x="666" y="717" type="qcurve" smooth="yes"/>
      <point x="666" y="0" type="line" smooth="no"/>
      <point x="459" y="0" type="line" smooth="no"/>
      <point x="460" y="182" type="line" smooth="yes"/>
      <point x="460" y="171"/>
      <point x="447" y="133" type="qcurve" smooth="yes"/>
      <point x="436" y="98"/>
      <point x="397" y="45"/>
      <point x="313" y="0"/>
      <point x="199" y="0"/>
      <point x="115" y="43"/>
      <point x="76" y="102"/>
      <point x="53" y="162"/>
      <point x="53" y="184" type="qcurve" smooth="no"/>
      <point x="51" y="205" type="line" smooth="no"/>
      <point x="51" y="307" type="line" smooth="yes"/>
      <point x="51" y="434"/>
      <point x="231" y="614"/>
      <point x="358" y="614" type="qcurve" smooth="yes"/>
      <point x="401" y="614"/>
      <point x="461" y="674"/>
      <point x="461" y="760"/>
      <point x="401" y="819"/>
      <point x="315" y="819"/>
      <point x="256" y="760"/>
      <point x="256" y="717" type="qcurve" smooth="no"/>
      <point x="51" y="717" type="line" smooth="no"/>
      <point x="51" y="844"/>
      <point x="231" y="1024"/>
    </contour>
    <contour>
      <point x="358" y="205" type="qcurve" smooth="yes"/>
      <point x="403" y="205"/>
      <point x="455" y="256"/>
      <point x="459" y="281" type="qcurve" smooth="no"/>
      <point x="461" y="307" type="line" smooth="no"/>
      <point x="461" y="428" type="line" smooth="no"/>
      <point x="412" y="410"/>
      <point x="358" y="410" type="qcurve" smooth="yes"/>
      <point x="315" y="410"/>
      <point x="256" y="350"/>
      <point x="256" y="307" type="qcurve" smooth="yes"/>
      <point x="256" y="303"/>
      <point x="258" y="289"/>
      <point x="268" y="254"/>
      <point x="287" y="227"/>
      <point x="329" y="205"/>
    </contour>
  </outline>
</glyph>
<glyph name="d" format="1">
  <advance width="786"/>
  <unicode hex="0064"/>
  <outline>
    <contour>
      <point x="496" y="1434" type="line" smooth="no"/>
      <point x="700" y="1434" type="line" smooth="no"/>
      <point x="700" y="0" type="line" smooth="no"/>
      <point x="496" y="0" type="line" smooth="no"/>
      <point x="496" y="205" type="line" smooth="yes"/>
      <point x="496" y="197"/>
      <point x="494" y="168"/>
      <point x="471" y="98"/>
      <point x="432" y="45"/>
      <point x="348" y="0"/>
      <point x="233" y="0"/>
      <point x="150" y="43"/>
      <point x="111" y="102"/>
      <point x="88" y="162"/>
      <point x="88" y="184" type="qcurve" smooth="no"/>
      <point x="86" y="205" type="line" smooth="no"/>
      <point x="86" y="307" type="line" smooth="no"/>
      <point x="86" y="717" type="line" smooth="no"/>
      <point x="86" y="819" type="line" smooth="yes"/>
      <point x="86" y="827"/>
      <point x="88" y="856"/>
      <point x="111" y="926"/>
      <point x="150" y="979"/>
      <point x="233" y="1024"/>
      <point x="348" y="1024"/>
      <point x="432" y="981"/>
      <point x="471" y="922"/>
      <point x="494" y="862"/>
      <point x="494" y="840" type="qcurve" smooth="no"/>
      <point x="496" y="819" type="line" smooth="no"/>
    </contour>
    <contour>
      <point x="496" y="307" type="line" smooth="no"/>
      <point x="496" y="717" type="line" smooth="yes"/>
      <point x="496" y="721"/>
      <point x="494" y="735"/>
      <point x="483" y="770"/>
      <point x="465" y="797"/>
      <point x="422" y="819"/>
      <point x="393" y="819" type="qcurve" smooth="yes"/>
      <point x="348" y="819"/>
      <point x="297" y="768"/>
      <point x="293" y="741" type="qcurve" smooth="no"/>
      <point x="291" y="717" type="line" smooth="no"/>
      <point x="291" y="307" type="line" smooth="yes"/>
      <point x="291" y="303"/>
      <point x="293" y="289"/>
      <point x="303" y="254"/>
      <point x="322" y="227"/>
      <point x="365" y="205"/>
      <point x="393" y="205" type="qcurve" smooth="yes"/>
      <point x="438" y="205"/>
      <point x="489" y="256"/>
      <point x="494" y="283" type="qcurve" smooth="no"/>
    </contour>
  </outline>
</glyph>
<glyph name="f" format="1">
  <advance width="450"/>
  <unicode hex="0066"/>
  <outline>
    <contour>
      <point x="430" y="1434" type="qcurve" smooth="no"/>
      <point x="430" y="1229" type="line" smooth="no"/>
      <point x="387" y="1229"/>
      <point x="328" y="1169"/>
      <point x="328" y="1126" type="qcurve" smooth="yes"/>
      <point x="328" y="1024" type="line" smooth="no"/>
      <point x="430" y="1024" type="line" smooth="no"/>
      <point x="430" y="819" type="line" smooth="no"/>
      <point x="328" y="819" type="line" smooth="no"/>
      <point x="328" y="0" type="line" smooth="no"/>
      <point x="123" y="0" type="line" smooth="no"/>
      <point x="123" y="819" type="line" smooth="no"/>
      <point x="20" y="819" type="line" smooth="no"/>
      <point x="20" y="1024" type="line" smooth="no"/>
      <point x="123" y="1024" type="line" smooth="no"/>
      <point x="123" y="1130" type="line" smooth="no"/>
      <point x="125" y="1255"/>
      <point x="303" y="1434"/>
    </contour>
  </outline>
</glyph>
<glyph name="g" format="1">
  <advance width="786"/>
  <unicode hex="0067"/>
  <outline>
    <contour>
      <point x="348" y="1024"/>
      <point x="432" y="981"/>
      <point x="471" y="922"/>
      <point x="494" y="862"/>
      <point x="494" y="840" type="qcurve" smooth="no"/>
      <point x="496" y="819" type="line" smooth="no"/>
      <point x="496" y="1024" type="line" smooth="no"/>
      <point x="700" y="1024" type="line" smooth="no"/>
      <point x="700" y="-109" type="line" smooth="no"/>
      <point x="700" y="-113" type="line" smooth="no"/>
      <point x="698" y="-238"/>
      <point x="520" y="-416"/>
      <point x="393" y="-416" type="qcurve" smooth="yes"/>
      <point x="266" y="-416"/>
      <point x="86" y="-236"/>
      <point x="86" y="-109" type="qcurve" smooth="no"/>
      <point x="291" y="-109" type="line" smooth="no"/>
      <point x="291" y="-152"/>
      <point x="350" y="-211"/>
      <point x="393" y="-211" type="qcurve" smooth="yes"/>
      <point x="434" y="-211"/>
      <point x="496" y="-152"/>
      <point x="496" y="-111" type="qcurve" smooth="yes"/>
      <point x="496" y="-109" type="line" smooth="no"/>
      <point x="496" y="205" type="line" smooth="yes"/>
      <point x="496" y="197"/>
      <point x="494" y="168"/>
      <point x="471" y="98"/>
      <point x="432" y="45"/>
      <point x="348" y="0"/>
      <point x="233" y="0"/>
      <point x="150" y="43"/>
      <point x="111" y="102"/>
      <point x="88" y="162"/>
      <point x="88" y="184" type="qcurve" smooth="no"/>
      <point x="86" y="205" type="line" smooth="no"/>
      <point x="86" y="307" type="line" smooth="no"/>
      <point x="86" y="717" type="line" smooth="no"/>
      <point x="86" y="819" type="line" smooth="yes"/>
      <point x="86" y="827"/>
      <point x="88" y="856"/>
      <point x="111" y="926"/>
      <point x="150" y="979"/>
      <point x="233" y="1024"/>
    </contour>
    <contour>
      <point x="393" y="819" type="qcurve" smooth="yes"/>
      <point x="348" y="819"/>
      <point x="297" y="768"/>
      <point x="293" y="741" type="qcurve" smooth="no"/>
      <point x="291" y="717" type="line" smooth="no"/>
      <point x="291" y="307" type="line" smooth="yes"/>
      <point x="291" y="303"/>
      <point x="293" y="289"/>
      <point x="303" y="254"/>
      <point x="322" y="227"/>
      <point x="365" y="205"/>
      <point x="393" y="205" type="qcurve" smooth="yes"/>
      <point x="438" y="205"/>
      <point x="489" y="256"/>
      <point x="494" y="283" type="qcurve" smooth="no"/>
      <point x="496" y="307" type="line" smooth="no"/>
      <point x="496" y="717" type="line" smooth="yes"/>
      <point x="496" y="721"/>
      <point x="494" y="735"/>
      <point x="483" y="770"/>
      <point x="465" y="797"/>
      <point x="422" y="819"/>
    </contour>
  </outline>
</glyph>
<glyph name="k" format="1">
  <advance width="686"/>
  <unicode hex="006b"/>
  <outline>
    <contour>
      <point x="86" y="1434" type="line" smooth="no"/>
      <point x="291" y="1434" type="line" smooth="no"/>
      <point x="291" y="614" type="line" smooth="no"/>
      <point x="496" y="1024" type="line" smooth="no"/>
      <point x="700" y="1024" type="line" smooth="no"/>
      <point x="496" y="614" type="line" smooth="no"/>
      <point x="700" y="0" type="line" smooth="no"/>
      <point x="496" y="0" type="line" smooth="no"/>
      <point x="373" y="369" type="line" smooth="no"/>
      <point x="291" y="205" type="line" smooth="no"/>
      <point x="291" y="0" type="line" smooth="no"/>
      <point x="86" y="0" type="line" smooth="no"/>
      <point x="86" y="205" type="line" smooth="no"/>
    </contour>
  </outline>
</glyph>
<glyph name="m" format="1">
  <advance width="1196"/>
  <unicode hex="006d"/>
  <outline>
    <contour>
      <point x="86" y="1024" type="line" smooth="no"/>
      <point x="291" y="1024" type="line" smooth="no"/>
      <point x="291" y="819" type="line" smooth="yes"/>
      <point x="291" y="827"/>
      <point x="293" y="856"/>
      <point x="315" y="926"/>
      <point x="354" y="979"/>
      <point x="438" y="1024"/>
      <point x="553" y="1024"/>
      <point x="637" y="981"/>
      <point x="676" y="922"/>
      <point x="698" y="862"/>
      <point x="698" y="840" type="qcurve" smooth="no"/>
      <point x="700" y="819" type="line" smooth="yes"/>
      <point x="700" y="827"/>
      <point x="702" y="856"/>
      <point x="725" y="926"/>
      <point x="764" y="979"/>
      <point x="848" y="1024"/>
      <point x="963" y="1024"/>
      <point x="1047" y="981"/>
      <point x="1085" y="922"/>
      <point x="1108" y="862"/>
      <point x="1108" y="840" type="qcurve" smooth="no"/>
      <point x="1110" y="819" type="line" smooth="no"/>
      <point x="1110" y="719" type="line" smooth="no"/>
      <point x="1110" y="0" type="line" smooth="no"/>
      <point x="905" y="0" type="line" smooth="no"/>
      <point x="905" y="717" type="line" smooth="yes"/>
      <point x="905" y="721"/>
      <point x="903" y="735"/>
      <point x="893" y="770"/>
      <point x="874" y="797"/>
      <point x="831" y="819"/>
      <point x="803" y="819" type="qcurve" smooth="yes"/>
      <point x="772" y="819"/>
      <point x="727" y="795"/>
      <point x="709" y="758"/>
      <point x="700" y="733"/>
      <point x="700" y="721" type="qcurve" smooth="yes"/>
      <point x="700" y="719" type="line" smooth="no"/>
      <point x="700" y="0" type="line" smooth="no"/>
      <point x="496" y="0" type="line" smooth="no"/>
      <point x="496" y="717" type="line" smooth="yes"/>
      <point x="496" y="721"/>
      <point x="494" y="735"/>
      <point x="483" y="770"/>
      <point x="465" y="797"/>
      <point x="422" y="819"/>
      <point x="393" y="819" type="qcurve" smooth="yes"/>
      <point x="362" y="819"/>
      <point x="317" y="795"/>
      <point x="299" y="758"/>
      <point x="291" y="733"/>
      <point x="291" y="721" type="qcurve" smooth="yes"/>
      <point x="291" y="0" type="line" smooth="no"/>
      <point x="86" y="0" type="line" smooth="no"/>
    </contour>
  </outline>
</glyph>
<glyph name="p" format="1">
  <advance width="786"/>
  <unicode hex="0070"/>
  <outline>
    <contour>
      <point x="86" y="1024" type="line" smooth="no"/>
      <point x="291" y="1024" type="line" smooth="no"/>
      <point x="291" y="819" type="line" smooth="yes"/>
      <point x="291" y="827"/>
      <point x="293" y="856"/>
      <point x="315" y="926"/>
      <point x="354" y="979"/>
      <point x="438" y="1024"/>
      <point x="553" y="1024"/>
      <point x="637" y="981"/>
      <point x="676" y="922"/>
      <point x="698" y="862"/>
      <point x="698" y="840" type="qcurve" smooth="no"/>
      <point x="700" y="819" type="line" smooth="no"/>
      <point x="700" y="719" type="line" smooth="no"/>
      <point x="700" y="307" type="line" smooth="no"/>
      <point x="700" y="205" type="line" smooth="yes"/>
      <point x="700" y="197"/>
      <point x="698" y="168"/>
      <point x="676" y="98"/>
      <point x="637" y="45"/>
      <point x="553" y="0"/>
      <point x="438" y="0"/>
      <point x="354" y="43"/>
      <point x="315" y="102"/>
      <point x="293" y="162"/>
      <point x="293" y="184" type="qcurve" smooth="no"/>
      <point x="291" y="205" type="line" smooth="no"/>
      <point x="291" y="-410" type="line" smooth="no"/>
      <point x="86" y="-410" type="line" smooth="no"/>
    </contour>
    <contour>
      <point x="393" y="819" type="qcurve" smooth="yes"/>
      <point x="362" y="819"/>
      <point x="317" y="795"/>
      <point x="299" y="758"/>
      <point x="291" y="733"/>
      <point x="291" y="721" type="qcurve" smooth="yes"/>
      <point x="291" y="303" type="line" smooth="yes"/>
      <point x="291" y="291"/>
      <point x="299" y="266"/>
      <point x="317" y="229"/>
      <point x="362" y="205"/>
      <point x="424" y="205"/>
      <point x="467" y="227"/>
      <point x="487" y="264"/>
      <point x="496" y="291"/>
      <point x="496" y="301" type="qcurve" smooth="yes"/>
      <point x="496" y="717" type="line" smooth="yes"/>
      <point x="496" y="721"/>
      <point x="494" y="735"/>
      <point x="483" y="770"/>
      <point x="465" y="797"/>
      <point x="422" y="819"/>
    </contour>
  </outline>
</glyph>
<glyph name="q" format="1">
  <advance width="786"/>
  <unicode hex="0071"/>
  <outline>
    <contour>
      <point x="348" y="1024"/>
      <point x="432" y="981"/>
      <point x="471" y="922"/>
      <point x="494" y="862"/>
      <point x="494" y="840" type="qcurve" smooth="no"/>
      <point x="496" y="819" type="line" smooth="no"/>
      <point x="496" y="1024" type="line" smooth="no"/>
      <point x="700" y="1024" type="line" smooth="no"/>
      <point x="700" y="-410" type="line" smooth="no"/>
      <point x="496" y="-410" type="line" smooth="no"/>
      <point x="496" y="205" type="line" smooth="yes"/>
      <point x="496" y="197"/>
      <point x="494" y="168"/>
      <point x="471" y="98"/>
      <point x="432" y="45"/>
      <point x="348" y="0"/>
      <point x="233" y="0"/>
      <point x="150" y="43"/>
      <point x="111" y="102"/>
      <point x="88" y="162"/>
      <point x="88" y="184" type="qcurve" smooth="no"/>
      <point x="86" y="205" type="line" smooth="no"/>
      <point x="86" y="301" type="line" smooth="no"/>
      <point x="86" y="717" type="line" smooth="no"/>
      <point x="86" y="819" type="line" smooth="yes"/>
      <point x="86" y="827"/>
      <point x="88" y="856"/>
      <point x="111" y="926"/>
      <point x="150" y="979"/>
      <point x="233" y="1024"/>
    </contour>
    <contour>
      <point x="393" y="819" type="qcurve" smooth="yes"/>
      <point x="358" y="819"/>
      <point x="313" y="793"/>
      <point x="297" y="750"/>
      <point x="291" y="727"/>
      <point x="291" y="719" type="qcurve" smooth="yes"/>
      <point x="291" y="307" type="line" smooth="yes"/>
      <point x="291" y="303"/>
      <point x="293" y="289"/>
      <point x="303" y="254"/>
      <point x="322" y="227"/>
      <point x="365" y="205"/>
      <point x="393" y="205" type="qcurve" smooth="yes"/>
      <point x="424" y="205"/>
      <point x="469" y="229"/>
      <point x="487" y="266"/>
      <point x="496" y="291"/>
      <point x="496" y="303" type="qcurve" smooth="yes"/>
      <point x="496" y="721" type="line" smooth="yes"/>
      <point x="496" y="733"/>
      <point x="487" y="758"/>
      <point x="469" y="795"/>
      <point x="424" y="819"/>
    </contour>
  </outline>
</glyph>
<glyph name="r" format="1">
  <advance width="720"/>
  <unicode hex="0072"/>
  <outline>
    <contour>
      <point x="86" y="1024" type="line" smooth="no"/>
      <point x="291" y="1024" type="line" smooth="no"/>
      <point x="291" y="819" type="line" smooth="yes"/>
      <point x="291" y="827"/>
      <point x="293" y="856"/>
      <point x="315" y="926"/>
      <point x="354" y="979"/>
      <point x="438" y="1024"/>
      <point x="553" y="1024"/>
      <point x="637" y="981"/>
      <point x="676" y="922"/>
      <point x="698" y="862"/>
      <point x="698" y="840" type="qcurve" smooth="no"/>
      <point x="700" y="819" type="line" smooth="no"/>
      <point x="700" y="717" type="line" smooth="no"/>
      <point x="496" y="717" type="line" smooth="no"/>
      <point x="496" y="721"/>
      <point x="494" y="735"/>
      <point x="483" y="770"/>
      <point x="465" y="797"/>
      <point x="422" y="819"/>
      <point x="393" y="819" type="qcurve" smooth="yes"/>
      <point x="362" y="819"/>
      <point x="317" y="795"/>
      <point x="299" y="758"/>
      <point x="291" y="733"/>
      <point x="291" y="721" type="qcurve" smooth="yes"/>
      <point x="291" y="0" type="line" smooth="no"/>
      <point x="86" y="0" type="line" smooth="no"/>
    </contour>
  </outline>
</glyph>
<glyph name="v" format="1">
  <advance width="610"/>
  <unicode hex="0076"/>
  <outline>
    <contour>
      <point x="-2" y="1024" type="line" smooth="no"/>
      <point x="203" y="1024" type="line" smooth="no"/>
      <point x="305" y="512" type="line" smooth="no"/>
      <point x="408" y="1024" type="line" smooth="no"/>
      <point x="612" y="1024" type="line" smooth="no"/>
      <point x="408" y="0" type="line" smooth="no"/>
      <point x="203" y="0" type="line" smooth="no"/>
    </contour>
  </outline>
</glyph>
<glyph name="guillemotright" format="1">
  <advance width="901"/>
  <unicode hex="00bb"/>
  <outline>
    <contour>
      <point x="57" y="956" type="line" smooth="no"/>
      <point x="57" y="739" type="line" smooth="no"/>
      <point x="271" y="527" type="line" smooth="no"/>
      <point x="57" y="314" type="line" smooth="no"/>
      <point x="57" y="98" type="line" smooth="no"/>
      <point x="488" y="527" type="line" smooth="no"/>
    </contour>
    <contour>
      <point x="450" y="956" type="line" smooth="no"/>
      <point x="450" y="739" type="line" smooth="no"/>
      <point x="664" y="527" type="line" smooth="no"/>
      <point x="450" y="314" type="line" smooth="no"/>
      <point x="450" y="98" type="line" smooth="no"/>
      <point x="881" y="527" type="line" smooth="no"/>
    </contour>
  </outline>
</glyph>
<glyph name="AE" format="1">
  <advance width="1267"/>
  <unicode hex="00c6"/>
  <outline>
    <contour>
      <point x="516" y="1432" type="line" smooth="no"/>
      <point x="1231" y="1432" type="line" smooth="no"/>
      <point x="1231" y="1229" type="line" smooth="no"/>
      <point x="821" y="1229" type="line" smooth="no"/>
      <point x="821" y="817" type="line" smooth="no"/>
      <point x="1128" y="817" type="line" smooth="no"/>
      <point x="1128" y="614" type="line" smooth="no"/>
      <point x="821" y="614" type="line" smooth="no"/>
      <point x="821" y="203" type="line" smooth="no"/>
      <point x="1231" y="203" type="line" smooth="no"/>
      <point x="1231" y="0" type="line" smooth="no"/>
      <point x="618" y="0" type="line" smooth="no"/>
      <point x="618" y="305" type="line" smooth="no"/>
      <point x="309" y="307" type="line" smooth="no"/>
      <point x="207" y="0" type="line" smooth="no"/>
      <point x="4" y="0" type="line" smooth="no"/>
    </contour>
    <contour>
      <point x="590" y="1126" type="line" smooth="no"/>
      <point x="385" y="510" type="line" smooth="no"/>
      <point x="618" y="510" type="line" smooth="no"/>
      <point x="618" y="1126" type="line" smooth="no"/>
    </contour>
  </outline>
</glyph>
<glyph name="Oacute" format="1">
  <advance width="786"/>
  <unicode hex="00d3"/>
  <outline>
    <contour>
      <point x="389" y="1737" type="line" smooth="no"/>
      <point x="592" y="1737" type="line" smooth="no"/>
      <point x="389" y="1483" type="line" smooth="no"/>
      <point x="238" y="1483" type="line" smooth="no"/>
    </contour>
    <contour>
      <point x="520" y="1434"/>
      <point x="700" y="1253"/>
      <point x="700" y="1126" type="qcurve" smooth="yes"/>
      <point x="700" y="307" type="line" smooth="yes"/>
      <point x="700" y="180"/>
      <point x="520" y="0"/>
      <point x="266" y="0"/>
      <point x="86" y="180"/>
      <point x="86" y="307" type="qcurve" smooth="yes"/>
      <point x="86" y="1126" type="line" smooth="yes"/>
      <point x="86" y="1253"/>
      <point x="266" y="1434"/>
    </contour>
    <contour>
      <point x="350" y="1229"/>
      <point x="291" y="1169"/>
      <point x="291" y="1126" type="qcurve" smooth="yes"/>
      <point x="291" y="836" type="line" smooth="no"/>
      <point x="291" y="596" type="line" smooth="no"/>
      <point x="291" y="307" type="line" smooth="yes"/>
      <point x="291" y="264"/>
      <point x="350" y="205"/>
      <point x="436" y="205"/>
      <point x="496" y="264"/>
      <point x="496" y="307" type="qcurve" smooth="yes"/>
      <point x="496" y="596" type="line" smooth="no"/>
      <point x="496" y="836" type="line" smooth="no"/>
      <point x="496" y="1126" type="line" smooth="yes"/>
      <point x="496" y="1169"/>
      <point x="436" y="1229"/>
    </contour>
  </outline>
</glyph>
<glyph name="multiply" format="1">
  <advance width="917"/>
  <unicode hex="00d7"/>
  <outline>
    <contour>
      <point x="821" y="532" type="line" smooth="no"/>
      <point x="676" y="387" type="line" smooth="no"/>
      <point x="458" y="604" type="line" smooth="no"/>
      <point x="241" y="387" type="line" smooth="no"/>
      <point x="95" y="532" type="line" smooth="no"/>
      <point x="313" y="749" type="line" smooth="no"/>
      <point x="95" y="967" type="line" smooth="no"/>
      <point x="241" y="1112" type="line" smooth="no"/>
      <point x="458" y="895" type="line" smooth="no"/>
      <point x="676" y="1112" type="line" smooth="no"/>
      <point x="821" y="967" type="line" smooth="no"/>
      <point x="604" y="749" type="line" smooth="no"/>
    </contour>
  </outline>
</glyph>
<glyph name="Uacute" format="1">
  <advance width="811"/>
  <unicode hex="00da"/>
  <outline>
    <contour>
      <point x="477" y="1745" type="line" smooth="no"/>
      <point x="680" y="1745" type="line" smooth="no"/>
      <point x="477" y="1491" type="line" smooth="no"/>
      <point x="326" y="1491" type="line" smooth="no"/>
    </contour>
    <contour>
      <point x="98" y="1434" type="line" smooth="no"/>
      <point x="303" y="1434" type="line" smooth="no"/>
      <point x="303" y="307" type="line" smooth="yes"/>
      <point x="303" y="264"/>
      <point x="362" y="205"/>
      <point x="449" y="205"/>
      <point x="508" y="264"/>
      <point x="508" y="307" type="qcurve" smooth="yes"/>
      <point x="508" y="1434" type="line" smooth="no"/>
      <point x="713" y="1434" type="line" smooth="no"/>
      <point x="713" y="307" type="line" smooth="yes"/>
      <point x="713" y="180"/>
      <point x="532" y="0"/>
      <point x="279" y="0"/>
      <point x="98" y="180"/>
      <point x="98" y="307" type="qcurve" smooth="yes"/>
    </contour>
  </outline>
</glyph>
<glyph name="eacute" format="1">
  <advance width="749"/>
  <unicode hex="00e9"/>
  <outline>
    <contour>
      <point x="454" y="1485" type="line" smooth="no"/>
      <point x="658" y="1485" type="line" smooth="no"/>
      <point x="454" y="1229" type="line" smooth="no"/>
      <point x="300" y="1229" type="line" smooth="no"/>
    </contour>
    <contour>
      <point x="502" y="1024"/>
      <point x="682" y="844"/>
      <point x="682" y="717" type="qcurve" smooth="yes"/>
      <point x="682" y="614" type="line" smooth="no"/>
      <point x="682" y="410" type="line" smooth="no"/>
      <point x="477" y="410" type="line" smooth="no"/>
      <point x="272" y="410" type="line" smooth="no"/>
      <point x="272" y="307" type="line" smooth="yes"/>
      <point x="272" y="264"/>
      <point x="332" y="205"/>
      <point x="418" y="205"/>
      <point x="477" y="264"/>
      <point x="477" y="307" type="qcurve" smooth="no"/>
      <point x="682" y="307" type="line" smooth="no"/>
      <point x="682" y="180"/>
      <point x="502" y="0"/>
      <point x="248" y="0"/>
      <point x="68" y="180"/>
      <point x="68" y="307" type="qcurve" smooth="yes"/>
      <point x="68" y="717" type="line" smooth="yes"/>
      <point x="68" y="844"/>
      <point x="248" y="1024"/>
    </contour>
    <contour>
      <point x="272" y="614" type="line" smooth="no"/>
      <point x="477" y="614" type="line" smooth="no"/>
      <point x="477" y="717" type="line" smooth="yes"/>
      <point x="477" y="760"/>
      <point x="418" y="819"/>
      <point x="332" y="819"/>
      <point x="272" y="760"/>
      <point x="272" y="717" type="qcurve" smooth="yes"/>
    </contour>
  </outline>
</glyph>
<glyph name="igrave" format="1">
  <advance width="391"/>
  <unicode hex="00ec"/>
  <outline>
    <contour>
      <point x="125" y="1434" type="line" smooth="no"/>
      <point x="-80" y="1434" type="line" smooth="no"/>
      <point x="125" y="1178" type="line" smooth="no"/>
      <point x="279" y="1178" type="line" smooth="no"/>
    </contour>
    <contour>
      <point x="101" y="1024" type="line" smooth="no"/>
      <point x="306" y="1024" type="line" smooth="no"/>
      <point x="306" y="0" type="line" smooth="no"/>
      <point x="101" y="0" type="line" smooth="no"/>
    </contour>
  </outline>
</glyph>
<glyph name="ograve" format="1">
  <advance width="753"/>
  <unicode hex="00f2"/>
  <outline>
    <contour>
      <point x="98" y="1434" type="line" smooth="no"/>
      <point x="301" y="1434" type="line" smooth="no"/>
      <point x="455" y="1180" type="line" smooth="no"/>
      <point x="303" y="1180" type="line" smooth="no"/>
    </contour>
    <contour>
      <point x="377" y="1020" type="qcurve" smooth="yes"/>
      <point x="504" y="1020"/>
      <point x="684" y="844"/>
      <point x="686" y="717" type="qcurve" smooth="no"/>
      <point x="686" y="305" type="line" smooth="yes"/>
      <point x="686" y="176"/>
      <point x="504" y="-4"/>
      <point x="377" y="-4" type="qcurve" smooth="yes"/>
      <point x="250" y="-4"/>
      <point x="72" y="172"/>
      <point x="68" y="297" type="qcurve" smooth="no"/>
      <point x="68" y="305" type="line" smooth="no"/>
      <point x="68" y="711" type="line" smooth="yes"/>
      <point x="68" y="840"/>
      <point x="248" y="1020"/>
    </contour>
    <contour>
      <point x="334" y="813"/>
      <point x="274" y="754"/>
      <point x="274" y="713" type="qcurve" smooth="yes"/>
      <point x="274" y="305" type="line" smooth="yes"/>
      <point x="274" y="262"/>
      <point x="334" y="203"/>
      <point x="377" y="203" type="qcurve" smooth="yes"/>
      <point x="418" y="203"/>
      <point x="479" y="260"/>
      <point x="479" y="301" type="qcurve" smooth="yes"/>
      <point x="479" y="711" type="line" smooth="yes"/>
      <point x="479" y="754"/>
      <point x="420" y="813"/>
    </contour>
  </outline>
</glyph>
<glyph name="oacute" format="1">
  <advance width="753"/>
  <unicode hex="00f3"/>
  <outline>
    <contour>
      <point x="453" y="1432" type="line" smooth="no"/>
      <point x="655" y="1432" type="line" smooth="no"/>
      <point x="453" y="1178" type="line" smooth="no"/>
      <point x="301" y="1178" type="line" smooth="no"/>
    </contour>
    <contour>
      <point x="377" y="1020" type="qcurve" smooth="yes"/>
      <point x="504" y="1020"/>
      <point x="684" y="844"/>
      <point x="686" y="717" type="qcurve" smooth="no"/>
      <point x="686" y="305" type="line" smooth="yes"/>
      <point x="686" y="176"/>
      <point x="504" y="-4"/>
      <point x="377" y="-4" type="qcurve" smooth="yes"/>
      <point x="250" y="-4"/>
      <point x="72" y="172"/>
      <point x="68" y="297" type="qcurve" smooth="no"/>
      <point x="68" y="305" type="line" smooth="no"/>
      <point x="68" y="711" type="line" smooth="yes"/>
      <point x="68" y="840"/>
      <point x="248" y="1020"/>
    </contour>
    <contour>
      <point x="334" y="813"/>
      <point x="274" y="754"/>
      <point x="274" y="713" type="qcurve" smooth="yes"/>
      <point x="274" y="305" type="line" smooth="yes"/>
      <point x="274" y="262"/>
      <point x="334" y="203"/>
      <point x="377" y="203" type="qcurve" smooth="yes"/>
      <point x="418" y="203"/>
      <point x="479" y="260"/>
      <point x="479" y="301" type="qcurve" smooth="yes"/>
      <point x="479" y="711" type="line" smooth="yes"/>
      <point x="479" y="754"/>
      <point x="420" y="813"/>
    </contour>
  </outline>
</glyph>
<glyph name="oe" format="1">
  <advance width="1157"/>
  <unicode hex="0153"/>
  <outline>
    <contour>
      <point x="784" y="1028" type="qcurve" smooth="yes"/>
      <point x="911" y="1028"/>
      <point x="1092" y="848"/>
      <point x="1092" y="721" type="qcurve" smooth="yes"/>
      <point x="1092" y="618" type="line" smooth="no"/>
      <point x="1092" y="414" type="line" smooth="no"/>
      <point x="887" y="414" type="line" smooth="no"/>
      <point x="682" y="414" type="line" smooth="no"/>
      <point x="682" y="311" type="line" smooth="yes"/>
      <point x="682" y="303" type="line" smooth="yes"/>
      <point x="686" y="264"/>
      <point x="743" y="209"/>
      <point x="784" y="209" type="qcurve" smooth="yes"/>
      <point x="827" y="209"/>
      <point x="887" y="268"/>
      <point x="887" y="311" type="qcurve" smooth="no"/>
      <point x="1092" y="311" type="line" smooth="no"/>
      <point x="1092" y="184"/>
      <point x="911" y="4"/>
      <point x="784" y="4" type="qcurve" smooth="yes"/>
      <point x="667" y="4"/>
      <point x="580" y="82" type="qcurve" smooth="no"/>
      <point x="492" y="4"/>
      <point x="375" y="4" type="qcurve" smooth="yes"/>
      <point x="250" y="4"/>
      <point x="70" y="178"/>
      <point x="68" y="303" type="qcurve" smooth="no"/>
      <point x="68" y="311" type="line" smooth="no"/>
      <point x="68" y="715" type="line" smooth="yes"/>
      <point x="68" y="844"/>
      <point x="248" y="1028"/>
      <point x="375" y="1028" type="qcurve" smooth="yes"/>
      <point x="484" y="1028"/>
      <point x="578" y="948" type="qcurve" smooth="no"/>
      <point x="665" y="1028"/>
    </contour>
    <contour>
      <point x="375" y="209" type="qcurve" smooth="yes"/>
      <point x="416" y="209"/>
      <point x="475" y="264"/>
      <point x="477" y="305" type="qcurve" smooth="yes"/>
      <point x="477" y="311" type="line" smooth="yes"/>
      <point x="477" y="721" type="line" smooth="no"/>
      <point x="477" y="723" type="line" smooth="yes"/>
      <point x="475" y="762"/>
      <point x="416" y="817"/>
      <point x="375" y="817" type="qcurve" smooth="yes"/>
      <point x="334" y="817"/>
      <point x="272" y="760"/>
      <point x="272" y="717" type="qcurve" smooth="yes"/>
      <point x="272" y="311" type="line" smooth="yes"/>
      <point x="272" y="268"/>
      <point x="332" y="209"/>
    </contour>
    <contour>
      <point x="887" y="618" type="line" smooth="no"/>
      <point x="887" y="721" type="line" smooth="yes"/>
      <point x="887" y="764"/>
      <point x="827" y="823"/>
      <point x="784" y="823" type="qcurve" smooth="yes"/>
      <point x="743" y="823"/>
      <point x="684" y="768"/>
      <point x="682" y="727" type="qcurve" smooth="yes"/>
      <point x="682" y="721" type="line" smooth="yes"/>
      <point x="682" y="618" type="line" smooth="no"/>
    </contour>
  </outline>
</glyph>
